<?xml version="1.0" encoding="UTF-8"?>
<svg xmlns="http://www.w3.org/2000/svg" width="1600" height="1000" viewBox="0 0 1600 1000">
  <defs>
    <marker id="arrow" markerWidth="13" markerHeight="13" refX="10" refY="6" orient="auto">
      <path d="M2,2 L11,6 L2,10 Z" fill="#0f766e"/>
    </marker>
    <filter id="shadow" x="-20%" y="-20%" width="140%" height="140%">
      <feDropShadow dx="0" dy="12" stdDeviation="16" flood-color="#0f172a" flood-opacity="0.12"/>
    </filter>
  </defs>
  <rect width="1600" height="1000" fill="#f7fee7"/>
  <rect x="42" y="42" width="1516" height="916" rx="36" fill="#ffffff" opacity="0.72" filter="url(#shadow)"/>
  <text x="86" y="112" font-size="34" fill="#0f766e" font-weight="900">多模态大模型运作原理</text>
  <text x="86" y="166" font-size="46" fill="#0f172a" font-weight="900">视觉语言模型：图像 token 如何接入 LLM</text>
  <text x="86" y="910" font-size="24" fill="#64748b" font-weight="600">用图像编码器提取视觉特征，再经投影器对齐到语言模型可消费的 token 空间。</text>
  <path d="M 488 276 C 543 276, 505 276, 560 276" fill="none" stroke="#0f766e" stroke-width="5" stroke-linecap="round" marker-end="url(#arrow)"/>
<path d="M 966 276 C 1021 276, 983 276, 1038 276" fill="none" stroke="#0f766e" stroke-width="5" stroke-linecap="round" marker-end="url(#arrow)"/>
<path d="M 1241 350 C 1296 350, 230 404, 285 404" fill="none" stroke="#0f766e" stroke-width="5" stroke-linecap="round" marker-end="url(#arrow)"/>
<path d="M 488 478 C 543 478, 505 478, 560 478" fill="none" stroke="#0f766e" stroke-width="5" stroke-linecap="round" marker-end="url(#arrow)"/>
<path d="M 966 478 C 1021 478, 983 478, 1038 478" fill="none" stroke="#0f766e" stroke-width="5" stroke-linecap="round" marker-end="url(#arrow)"/>
  
  <rect x="90" y="210" width="390" height="132" rx="18" fill="#ffffff" stroke="#d9e2ef" stroke-width="2"/>
  <rect x="90" y="210" width="10" height="132" rx="5" fill="#0f766e"/>
  <text x="118" y="254" font-size="30" fill="#0f172a" font-weight="800">图像输入</text>
  <text x="118" y="294" font-size="21" fill="#475569" font-weight="500">图片被切成 patch 或送入视觉编码器</text>
  

  <rect x="568" y="210" width="390" height="132" rx="18" fill="#ffffff" stroke="#d9e2ef" stroke-width="2"/>
  <rect x="568" y="210" width="10" height="132" rx="5" fill="#0f766e"/>
  <text x="596" y="254" font-size="30" fill="#0f172a" font-weight="800">Vision Encoder</text>
  <text x="596" y="294" font-size="21" fill="#475569" font-weight="500">ViT/CLIP 提取局部与全局视觉特征</text>
  

  <rect x="1046" y="210" width="390" height="132" rx="18" fill="#ffffff" stroke="#d9e2ef" stroke-width="2"/>
  <rect x="1046" y="210" width="10" height="132" rx="5" fill="#0f766e"/>
  <text x="1074" y="254" font-size="30" fill="#0f172a" font-weight="800">Projector</text>
  <text x="1074" y="294" font-size="21" fill="#475569" font-weight="500">线性层或 MLP 把视觉向量对齐到 LLM </text>
<text x="1074" y="322" font-size="21" fill="#475569" font-weight="500">维度</text>
  

  <rect x="90" y="412" width="390" height="132" rx="18" fill="#ffffff" stroke="#d9e2ef" stroke-width="2"/>
  <rect x="90" y="412" width="10" height="132" rx="5" fill="#0f766e"/>
  <text x="118" y="456" font-size="30" fill="#0f172a" font-weight="800">视觉 token</text>
  <text x="118" y="496" font-size="21" fill="#475569" font-weight="500">与文本 token 拼接或通过 cross-</text>
<text x="118" y="524" font-size="21" fill="#475569" font-weight="500">attention 融合</text>
  

  <rect x="568" y="412" width="390" height="132" rx="18" fill="#ffffff" stroke="#d9e2ef" stroke-width="2"/>
  <rect x="568" y="412" width="10" height="132" rx="5" fill="#0f766e"/>
  <text x="596" y="456" font-size="30" fill="#0f172a" font-weight="800">LLM Reasoning</text>
  <text x="596" y="496" font-size="21" fill="#475569" font-weight="500">基于图像证据进行描述、问答、推理</text>
  

  <rect x="1046" y="412" width="390" height="132" rx="18" fill="#ffffff" stroke="#d9e2ef" stroke-width="2"/>
  <rect x="1046" y="412" width="10" height="132" rx="5" fill="#0f766e"/>
  <text x="1074" y="456" font-size="30" fill="#0f172a" font-weight="800">文本回答</text>
  <text x="1074" y="496" font-size="21" fill="#475569" font-weight="500">输出 caption、定位解释或多轮对话</text>
  
  <rect x="86" y="700" width="1428" height="190" rx="24" fill="#f8fafc" stroke="#dbe4f0" stroke-width="2"/>
  
    <g transform="translate(170 765)">
      <circle cx="0" cy="0" r="18" fill="#0f766e"/>
      <text x="-6" y="8" font-size="22" fill="#fff" font-weight="800">1</text>
      <text x="34" y="-8" font-size="24" fill="#334155" font-weight="650">代表形态：LLaVA、Flamingo 类连接</text>
<text x="34" y="23" font-size="24" fill="#334155" font-weight="650">器</text>
    </g>

    <g transform="translate(600 765)">
      <circle cx="0" cy="0" r="18" fill="#0f766e"/>
      <text x="-6" y="8" font-size="22" fill="#fff" font-weight="800">2</text>
      <text x="34" y="-8" font-size="24" fill="#334155" font-weight="650">关键训练：视觉-语言对齐 + 指令微调</text>
    </g>

    <g transform="translate(1030 765)">
      <circle cx="0" cy="0" r="18" fill="#0f766e"/>
      <text x="-6" y="8" font-size="22" fill="#fff" font-weight="800">3</text>
      <text x="34" y="-8" font-size="24" fill="#334155" font-weight="650">风险：幻觉来自视觉证据不足或对齐偏差</text>
    </g>
</svg>