<?xml version="1.0" encoding="UTF-8"?>
<svg xmlns="http://www.w3.org/2000/svg" width="1600" height="1000" viewBox="0 0 1600 1000">
  <defs>
    <marker id="arrow" markerWidth="13" markerHeight="13" refX="10" refY="6" orient="auto">
      <path d="M2,2 L11,6 L2,10 Z" fill="#4f46e5"/>
    </marker>
    <filter id="shadow" x="-20%" y="-20%" width="140%" height="140%">
      <feDropShadow dx="0" dy="12" stdDeviation="16" flood-color="#0f172a" flood-opacity="0.12"/>
    </filter>
  </defs>
  <rect width="1600" height="1000" fill="#eef2ff"/>
  <rect x="42" y="42" width="1516" height="916" rx="36" fill="#ffffff" opacity="0.72" filter="url(#shadow)"/>
  <text x="86" y="112" font-size="34" fill="#4f46e5" font-weight="900">多模态大模型运作原理</text>
  <text x="86" y="166" font-size="46" fill="#0f172a" font-weight="900">工具调用 Agent：模型如何规划、行动、观察</text>
  <text x="86" y="910" font-size="24" fill="#64748b" font-weight="600">LLM 不只生成文本，而是在循环中选择工具、传参、读取结果并更新下一步计划。</text>
  <path d="M 488 276 C 543 276, 505 276, 560 276" fill="none" stroke="#4f46e5" stroke-width="5" stroke-linecap="round" marker-end="url(#arrow)"/>
<path d="M 966 276 C 1021 276, 983 276, 1038 276" fill="none" stroke="#4f46e5" stroke-width="5" stroke-linecap="round" marker-end="url(#arrow)"/>
<path d="M 1241 350 C 1296 350, 230 404, 285 404" fill="none" stroke="#4f46e5" stroke-width="5" stroke-linecap="round" marker-end="url(#arrow)"/>
<path d="M 488 478 C 543 478, 505 478, 560 478" fill="none" stroke="#4f46e5" stroke-width="5" stroke-linecap="round" marker-end="url(#arrow)"/>
<path d="M 966 478 C 1021 478, 983 478, 1038 478" fill="none" stroke="#4f46e5" stroke-width="5" stroke-linecap="round" marker-end="url(#arrow)"/>
  
  <rect x="90" y="210" width="390" height="132" rx="18" fill="#ffffff" stroke="#d9e2ef" stroke-width="2"/>
  <rect x="90" y="210" width="10" height="132" rx="5" fill="#4f46e5"/>
  <text x="118" y="254" font-size="30" fill="#0f172a" font-weight="800">任务目标</text>
  <text x="118" y="294" font-size="21" fill="#475569" font-weight="500">用户给出目标、约束和上下文</text>
  

  <rect x="568" y="210" width="390" height="132" rx="18" fill="#ffffff" stroke="#d9e2ef" stroke-width="2"/>
  <rect x="568" y="210" width="10" height="132" rx="5" fill="#4f46e5"/>
  <text x="596" y="254" font-size="30" fill="#0f172a" font-weight="800">Planner</text>
  <text x="596" y="294" font-size="21" fill="#475569" font-weight="500">拆分步骤，决定是否调用工具</text>
  

  <rect x="1046" y="210" width="390" height="132" rx="18" fill="#ffffff" stroke="#d9e2ef" stroke-width="2"/>
  <rect x="1046" y="210" width="10" height="132" rx="5" fill="#4f46e5"/>
  <text x="1074" y="254" font-size="30" fill="#0f172a" font-weight="800">Tool Router</text>
  <text x="1074" y="294" font-size="21" fill="#475569" font-weight="500">选择搜索、代码、数据库、浏览器或 API</text>
  

  <rect x="90" y="412" width="390" height="132" rx="18" fill="#ffffff" stroke="#d9e2ef" stroke-width="2"/>
  <rect x="90" y="412" width="10" height="132" rx="5" fill="#4f46e5"/>
  <text x="118" y="456" font-size="30" fill="#0f172a" font-weight="800">Execution</text>
  <text x="118" y="496" font-size="21" fill="#475569" font-weight="500">外部系统执行动作并返回观察</text>
  

  <rect x="568" y="412" width="390" height="132" rx="18" fill="#ffffff" stroke="#d9e2ef" stroke-width="2"/>
  <rect x="568" y="412" width="10" height="132" rx="5" fill="#4f46e5"/>
  <text x="596" y="456" font-size="30" fill="#0f172a" font-weight="800">Reflection</text>
  <text x="596" y="496" font-size="21" fill="#475569" font-weight="500">校验结果，必要时重试或改计划</text>
  

  <rect x="1046" y="412" width="390" height="132" rx="18" fill="#ffffff" stroke="#d9e2ef" stroke-width="2"/>
  <rect x="1046" y="412" width="10" height="132" rx="5" fill="#4f46e5"/>
  <text x="1074" y="456" font-size="30" fill="#0f172a" font-weight="800">Final Response</text>
  <text x="1074" y="496" font-size="21" fill="#475569" font-weight="500">整合证据、操作记录和结论</text>
  
  <rect x="86" y="700" width="1428" height="190" rx="24" fill="#f8fafc" stroke="#dbe4f0" stroke-width="2"/>
  
    <g transform="translate(170 765)">
      <circle cx="0" cy="0" r="18" fill="#4f46e5"/>
      <text x="-6" y="8" font-size="22" fill="#fff" font-weight="800">1</text>
      <text x="34" y="-8" font-size="24" fill="#334155" font-weight="650">核心循环：Think -&gt; Act -&gt; Ob</text>
<text x="34" y="23" font-size="24" fill="#334155" font-weight="650">serve</text>
    </g>

    <g transform="translate(600 765)">
      <circle cx="0" cy="0" r="18" fill="#4f46e5"/>
      <text x="-6" y="8" font-size="22" fill="#fff" font-weight="800">2</text>
      <text x="34" y="-8" font-size="24" fill="#334155" font-weight="650">工程重点：权限、状态、日志、错误恢复</text>
    </g>

    <g transform="translate(1030 765)">
      <circle cx="0" cy="0" r="18" fill="#4f46e5"/>
      <text x="-6" y="8" font-size="22" fill="#fff" font-weight="800">3</text>
      <text x="34" y="-8" font-size="24" fill="#334155" font-weight="650">模型训练：学会何时调用、传什么参数、如何读结果</text>
    </g>
</svg>