<?xml version="1.0" encoding="UTF-8"?>
<svg xmlns="http://www.w3.org/2000/svg" width="1600" height="1000" viewBox="0 0 1600 1000">
  <defs>
    <marker id="arrow" markerWidth="13" markerHeight="13" refX="10" refY="6" orient="auto">
      <path d="M2,2 L11,6 L2,10 Z" fill="#ca8a04"/>
    </marker>
    <filter id="shadow" x="-20%" y="-20%" width="140%" height="140%">
      <feDropShadow dx="0" dy="12" stdDeviation="16" flood-color="#0f172a" flood-opacity="0.12"/>
    </filter>
  </defs>
  <rect width="1600" height="1000" fill="#fefce8"/>
  <rect x="42" y="42" width="1516" height="916" rx="36" fill="#ffffff" opacity="0.72" filter="url(#shadow)"/>
  <text x="86" y="112" font-size="34" fill="#ca8a04" font-weight="900">多模态大模型运作原理</text>
  <text x="86" y="166" font-size="46" fill="#0f172a" font-weight="900">MoE 专家混合：稀疏激活如何扩展参数量</text>
  <text x="86" y="910" font-size="24" fill="#64748b" font-weight="600">路由器为每个 token 选择少量专家，计算成本近似固定，但总参数容量大幅增加。</text>
  <path d="M 488 276 C 543 276, 505 276, 560 276" fill="none" stroke="#ca8a04" stroke-width="5" stroke-linecap="round" marker-end="url(#arrow)"/>
<path d="M 966 276 C 1021 276, 983 276, 1038 276" fill="none" stroke="#ca8a04" stroke-width="5" stroke-linecap="round" marker-end="url(#arrow)"/>
<path d="M 1241 350 C 1296 350, 230 404, 285 404" fill="none" stroke="#ca8a04" stroke-width="5" stroke-linecap="round" marker-end="url(#arrow)"/>
<path d="M 488 478 C 543 478, 505 478, 560 478" fill="none" stroke="#ca8a04" stroke-width="5" stroke-linecap="round" marker-end="url(#arrow)"/>
<path d="M 966 478 C 1021 478, 983 478, 1038 478" fill="none" stroke="#ca8a04" stroke-width="5" stroke-linecap="round" marker-end="url(#arrow)"/>
  
  <rect x="90" y="210" width="390" height="132" rx="18" fill="#ffffff" stroke="#d9e2ef" stroke-width="2"/>
  <rect x="90" y="210" width="10" height="132" rx="5" fill="#ca8a04"/>
  <text x="118" y="254" font-size="30" fill="#0f172a" font-weight="800">Token Hidden State</text>
  <text x="118" y="294" font-size="21" fill="#475569" font-weight="500">每个 token 进入 Transforme</text>
<text x="118" y="322" font-size="21" fill="#475569" font-weight="500">r 层</text>
  

  <rect x="568" y="210" width="390" height="132" rx="18" fill="#ffffff" stroke="#d9e2ef" stroke-width="2"/>
  <rect x="568" y="210" width="10" height="132" rx="5" fill="#ca8a04"/>
  <text x="596" y="254" font-size="30" fill="#0f172a" font-weight="800">Router</text>
  <text x="596" y="294" font-size="21" fill="#475569" font-weight="500">计算 token 应该发送给哪些专家</text>
  

  <rect x="1046" y="210" width="390" height="132" rx="18" fill="#ffffff" stroke="#d9e2ef" stroke-width="2"/>
  <rect x="1046" y="210" width="10" height="132" rx="5" fill="#ca8a04"/>
  <text x="1074" y="254" font-size="30" fill="#0f172a" font-weight="800">Expert 1..N</text>
  <text x="1074" y="294" font-size="21" fill="#475569" font-weight="500">多个 FFN 专家各自学习不同模式</text>
  

  <rect x="90" y="412" width="390" height="132" rx="18" fill="#ffffff" stroke="#d9e2ef" stroke-width="2"/>
  <rect x="90" y="412" width="10" height="132" rx="5" fill="#ca8a04"/>
  <text x="118" y="456" font-size="30" fill="#0f172a" font-weight="800">Top-k Dispatch</text>
  <text x="118" y="496" font-size="21" fill="#475569" font-weight="500">只激活少数专家，降低 FLOPs</text>
  

  <rect x="568" y="412" width="390" height="132" rx="18" fill="#ffffff" stroke="#d9e2ef" stroke-width="2"/>
  <rect x="568" y="412" width="10" height="132" rx="5" fill="#ca8a04"/>
  <text x="596" y="456" font-size="30" fill="#0f172a" font-weight="800">Combine</text>
  <text x="596" y="496" font-size="21" fill="#475569" font-weight="500">按路由权重合并专家输出</text>
  

  <rect x="1046" y="412" width="390" height="132" rx="18" fill="#ffffff" stroke="#d9e2ef" stroke-width="2"/>
  <rect x="1046" y="412" width="10" height="132" rx="5" fill="#ca8a04"/>
  <text x="1074" y="456" font-size="30" fill="#0f172a" font-weight="800">Next Layer</text>
  <text x="1074" y="496" font-size="21" fill="#475569" font-weight="500">回到主干 Transformer 继续传播</text>
  
  <rect x="86" y="700" width="1428" height="190" rx="24" fill="#f8fafc" stroke="#dbe4f0" stroke-width="2"/>
  
    <g transform="translate(170 765)">
      <circle cx="0" cy="0" r="18" fill="#ca8a04"/>
      <text x="-6" y="8" font-size="22" fill="#fff" font-weight="800">1</text>
      <text x="34" y="-8" font-size="24" fill="#334155" font-weight="650">优点：参数容量大，单次计算相对省</text>
    </g>

    <g transform="translate(600 765)">
      <circle cx="0" cy="0" r="18" fill="#ca8a04"/>
      <text x="-6" y="8" font-size="22" fill="#fff" font-weight="800">2</text>
      <text x="34" y="-8" font-size="24" fill="#334155" font-weight="650">挑战：负载均衡、通信开销、训练稳定性</text>
    </g>

    <g transform="translate(1030 765)">
      <circle cx="0" cy="0" r="18" fill="#ca8a04"/>
      <text x="-6" y="8" font-size="22" fill="#fff" font-weight="800">3</text>
      <text x="34" y="-8" font-size="24" fill="#334155" font-weight="650">代表思路：Switch Transformer</text>
<text x="34" y="23" font-size="24" fill="#334155" font-weight="650"> 简化为 top-1 路由</text>
    </g>
</svg>