<?xml version="1.0" encoding="UTF-8"?>
<svg xmlns="http://www.w3.org/2000/svg" width="1600" height="1000" viewBox="0 0 1600 1000">
  <defs>
    <marker id="arrow" markerWidth="13" markerHeight="13" refX="10" refY="6" orient="auto">
      <path d="M2,2 L11,6 L2,10 Z" fill="#475569"/>
    </marker>
    <filter id="shadow" x="-20%" y="-20%" width="140%" height="140%">
      <feDropShadow dx="0" dy="12" stdDeviation="16" flood-color="#0f172a" flood-opacity="0.12"/>
    </filter>
  </defs>
  <rect width="1600" height="1000" fill="#f8fafc"/>
  <rect x="42" y="42" width="1516" height="916" rx="36" fill="#ffffff" opacity="0.72" filter="url(#shadow)"/>
  <text x="86" y="112" font-size="34" fill="#475569" font-weight="900">多模态大模型运作原理</text>
  <text x="86" y="166" font-size="46" fill="#0f172a" font-weight="900">从训练到推理：大模型系统全链路</text>
  <text x="86" y="910" font-size="24" fill="#64748b" font-weight="600">数据、训练、对齐、压缩、服务化和监控共同决定一个多模态模型能否稳定上线。</text>
  <path d="M 488 276 C 543 276, 505 276, 560 276" fill="none" stroke="#475569" stroke-width="5" stroke-linecap="round" marker-end="url(#arrow)"/>
<path d="M 966 276 C 1021 276, 983 276, 1038 276" fill="none" stroke="#475569" stroke-width="5" stroke-linecap="round" marker-end="url(#arrow)"/>
<path d="M 1241 350 C 1296 350, 230 404, 285 404" fill="none" stroke="#475569" stroke-width="5" stroke-linecap="round" marker-end="url(#arrow)"/>
<path d="M 488 478 C 543 478, 505 478, 560 478" fill="none" stroke="#475569" stroke-width="5" stroke-linecap="round" marker-end="url(#arrow)"/>
<path d="M 966 478 C 1021 478, 983 478, 1038 478" fill="none" stroke="#475569" stroke-width="5" stroke-linecap="round" marker-end="url(#arrow)"/>
  
  <rect x="90" y="210" width="390" height="132" rx="18" fill="#ffffff" stroke="#d9e2ef" stroke-width="2"/>
  <rect x="90" y="210" width="10" height="132" rx="5" fill="#475569"/>
  <text x="118" y="254" font-size="30" fill="#0f172a" font-weight="800">数据管线</text>
  <text x="118" y="294" font-size="21" fill="#475569" font-weight="500">收集、清洗、去重、标注、安全过滤</text>
  

  <rect x="568" y="210" width="390" height="132" rx="18" fill="#ffffff" stroke="#d9e2ef" stroke-width="2"/>
  <rect x="568" y="210" width="10" height="132" rx="5" fill="#475569"/>
  <text x="596" y="254" font-size="30" fill="#0f172a" font-weight="800">预训练</text>
  <text x="596" y="294" font-size="21" fill="#475569" font-weight="500">大规模自监督学习通用表征</text>
  

  <rect x="1046" y="210" width="390" height="132" rx="18" fill="#ffffff" stroke="#d9e2ef" stroke-width="2"/>
  <rect x="1046" y="210" width="10" height="132" rx="5" fill="#475569"/>
  <text x="1074" y="254" font-size="30" fill="#0f172a" font-weight="800">后训练</text>
  <text x="1074" y="294" font-size="21" fill="#475569" font-weight="500">SFT、偏好优化、评测与安全对齐</text>
  

  <rect x="90" y="412" width="390" height="132" rx="18" fill="#ffffff" stroke="#d9e2ef" stroke-width="2"/>
  <rect x="90" y="412" width="10" height="132" rx="5" fill="#475569"/>
  <text x="118" y="456" font-size="30" fill="#0f172a" font-weight="800">压缩优化</text>
  <text x="118" y="496" font-size="21" fill="#475569" font-weight="500">量化、蒸馏、KV Cache、投机解码</text>
  

  <rect x="568" y="412" width="390" height="132" rx="18" fill="#ffffff" stroke="#d9e2ef" stroke-width="2"/>
  <rect x="568" y="412" width="10" height="132" rx="5" fill="#475569"/>
  <text x="596" y="456" font-size="30" fill="#0f172a" font-weight="800">Serving</text>
  <text x="596" y="496" font-size="21" fill="#475569" font-weight="500">批处理、调度、路由、弹性伸缩</text>
  

  <rect x="1046" y="412" width="390" height="132" rx="18" fill="#ffffff" stroke="#d9e2ef" stroke-width="2"/>
  <rect x="1046" y="412" width="10" height="132" rx="5" fill="#475569"/>
  <text x="1074" y="456" font-size="30" fill="#0f172a" font-weight="800">监控闭环</text>
  <text x="1074" y="496" font-size="21" fill="#475569" font-weight="500">质量、延迟、成本、滥用和反馈数据</text>
  
  <rect x="86" y="700" width="1428" height="190" rx="24" fill="#f8fafc" stroke="#dbe4f0" stroke-width="2"/>
  
    <g transform="translate(170 765)">
      <circle cx="0" cy="0" r="18" fill="#475569"/>
      <text x="-6" y="8" font-size="22" fill="#fff" font-weight="800">1</text>
      <text x="34" y="-8" font-size="24" fill="#334155" font-weight="650">多模态额外成本：编码器、存储、带宽、上下文长度</text>
    </g>

    <g transform="translate(600 765)">
      <circle cx="0" cy="0" r="18" fill="#475569"/>
      <text x="-6" y="8" font-size="22" fill="#fff" font-weight="800">2</text>
      <text x="34" y="-8" font-size="24" fill="#334155" font-weight="650">上线重点：可观测、可回滚、可评测</text>
    </g>

    <g transform="translate(1030 765)">
      <circle cx="0" cy="0" r="18" fill="#475569"/>
      <text x="-6" y="8" font-size="22" fill="#fff" font-weight="800">3</text>
      <text x="34" y="-8" font-size="24" fill="#334155" font-weight="650">持续改进来自真实反馈与离线评测集</text>
    </g>
</svg>